<svg width="589" height="355" viewBox="0 0 589 355" fill="none" xmlns="http://www.w3.org/2000/svg">
<g clip-path="url(#clip0_1504_69)">
<path d="M589 277.028C589.012 279.406 588.081 281.691 586.41 283.381C584.739 285.071 582.467 286.027 580.091 286.04H188.133C186.957 286.033 185.794 285.796 184.71 285.339C183.625 284.883 182.642 284.218 181.814 283.381C180.987 282.544 180.333 281.552 179.888 280.462C179.444 279.372 179.218 278.205 179.224 277.028V9.01161C179.212 6.63402 180.144 4.34887 181.814 2.65886C183.485 0.96886 185.758 0.0124338 188.133 0H580.091C581.267 0.00612374 582.431 0.244069 583.515 0.700247C584.599 1.15642 585.583 1.8219 586.41 2.65868C587.237 3.49547 587.892 4.48717 588.336 5.57717C588.78 6.66716 589.006 7.83411 589 9.01137V277.028Z" fill="#E6E6E6"/>
<path d="M584.376 272.639C584.376 274.95 583.459 277.166 581.827 278.8C580.194 280.435 577.98 281.353 575.672 281.353H192.821C190.512 281.353 188.298 280.435 186.666 278.8C185.034 277.166 184.117 274.95 184.117 272.639V13.5232C184.117 11.2123 185.034 8.99594 186.666 7.36183C188.298 5.72772 190.512 4.80969 192.821 4.80969H575.689C577.995 4.81434 580.204 5.73442 581.833 7.36802C583.462 9.00163 584.376 11.2153 584.376 13.5232V272.639Z" fill="white"/>
<path d="M204.578 16.0596H564.323C565.693 16.0596 567.007 16.6045 567.976 17.5745C568.945 18.5444 569.49 19.8599 569.49 21.2316V263.926C569.49 265.297 568.945 266.613 567.976 267.583C567.007 268.553 565.693 269.098 564.323 269.098H204.578C203.208 269.098 201.894 268.553 200.925 267.583C199.956 266.613 199.412 265.297 199.412 263.926V21.2316C199.412 19.8599 199.956 18.5444 200.925 17.5745C201.894 16.6045 203.208 16.0596 204.578 16.0596Z" fill="#E6E6E6"/>
<path d="M209.132 21.8803H559.378C560.749 21.8803 562.063 22.4252 563.031 23.3952C564 24.3651 564.545 25.6806 564.545 27.0523V256.796C564.545 258.167 564 259.483 563.031 260.453C562.063 261.423 560.749 261.968 559.378 261.968H209.132C207.762 261.968 206.448 261.423 205.479 260.453C204.51 259.483 203.965 258.167 203.965 256.796V27.0523C203.965 25.6806 204.51 24.3651 205.479 23.3952C206.448 22.4252 207.762 21.8803 209.132 21.8803Z" fill="white"/>
<path d="M456.43 181.479C455.051 181.478 453.688 181.187 452.429 180.625C452.136 180.495 451.857 180.336 451.595 180.151L426.141 162.214C424.85 161.305 423.796 160.098 423.069 158.695C422.341 157.292 421.962 155.735 421.961 154.155V129.693C421.962 128.113 422.341 126.556 423.069 125.153C423.796 123.751 424.85 122.544 426.141 121.634L451.595 103.697C451.857 103.512 452.136 103.353 452.429 103.223C453.928 102.556 455.571 102.274 457.206 102.403C458.842 102.533 460.42 103.07 461.796 103.965C463.172 104.86 464.302 106.085 465.085 107.528C465.868 108.972 466.278 110.589 466.278 112.231V171.617C466.278 174.232 465.24 176.739 463.393 178.588C461.547 180.437 459.042 181.475 456.43 181.475L456.43 181.479Z" fill="#3F3D56"/>
<path d="M399.463 186.288H328.469C313.985 186.276 302.247 176.903 302.232 165.338V118.51C302.247 106.945 313.985 97.5723 328.469 97.5604H399.648C414.029 97.574 425.683 106.879 425.7 118.362V165.338C425.685 176.903 413.947 186.276 399.463 186.288Z" fill="#3F3D56"/>
<path d="M525.926 247.194C537.588 247.194 547.041 237.731 547.041 226.058C547.041 214.384 537.588 204.921 525.926 204.921C514.265 204.921 504.812 214.384 504.812 226.058C504.812 237.731 514.265 247.194 525.926 247.194Z" fill="#E6E6E6"/>
<path d="M536.893 225.679L520.063 215.952C519.996 215.913 519.921 215.893 519.844 215.893C519.768 215.893 519.692 215.913 519.626 215.952C519.559 215.99 519.504 216.045 519.466 216.112C519.428 216.178 519.407 216.254 519.407 216.331V235.785C519.407 235.862 519.428 235.937 519.466 236.004C519.504 236.07 519.559 236.126 519.626 236.164C519.692 236.202 519.768 236.223 519.844 236.223C519.921 236.223 519.996 236.202 520.063 236.164L536.893 226.437C536.96 226.398 537.015 226.343 537.053 226.277C537.091 226.21 537.112 226.135 537.112 226.058C537.112 225.981 537.091 225.906 537.053 225.839C537.015 225.773 536.96 225.717 536.893 225.679L520.063 215.952C519.996 215.913 519.921 215.893 519.844 215.893C519.768 215.893 519.692 215.913 519.626 215.952C519.559 215.99 519.504 216.045 519.466 216.112C519.428 216.178 519.407 216.254 519.407 216.331V235.785C519.407 235.862 519.428 235.937 519.466 236.004C519.504 236.07 519.559 236.126 519.626 236.164C519.692 236.202 519.768 236.223 519.844 236.223C519.921 236.223 519.996 236.202 520.063 236.164L536.893 226.437C536.96 226.398 537.015 226.343 537.053 226.277C537.091 226.21 537.112 226.135 537.112 226.058C537.112 225.981 537.091 225.906 537.053 225.839C537.015 225.773 536.96 225.717 536.893 225.679Z" fill="white"/>
<path d="M498.512 309.171C498.524 311.548 497.593 313.833 495.922 315.523C494.252 317.213 491.979 318.17 489.604 318.182H97.6452C96.4692 318.176 95.3059 317.938 94.2218 317.482C93.1376 317.026 92.1538 316.36 91.3265 315.523C90.4993 314.687 89.8448 313.695 89.4004 312.605C88.956 311.515 88.7304 310.348 88.7366 309.171V41.1542C88.7241 38.7766 89.6557 36.4914 91.3264 34.8014C92.997 33.1114 95.2699 32.155 97.645 32.1426H489.603C490.779 32.1487 491.943 32.3866 493.027 32.8428C494.111 33.299 495.095 33.9645 495.922 34.8013C496.749 35.638 497.404 36.6298 497.848 37.7197C498.293 38.8097 498.518 39.9767 498.512 41.154V309.171Z" fill="#E6E6E6"/>
<path d="M493.888 304.782C493.888 307.093 492.971 309.309 491.339 310.943C489.707 312.577 487.493 313.495 485.184 313.495H102.333C100.025 313.495 97.8106 312.577 96.1782 310.943C94.5458 309.309 93.6288 307.093 93.6288 304.782V45.6658C93.6288 43.3548 94.5458 41.1385 96.1782 39.5044C97.8106 37.8703 100.025 36.9523 102.333 36.9523H485.202C487.507 36.9569 489.717 37.877 491.345 39.5106C492.974 41.1442 493.888 43.3579 493.888 45.6658V304.782Z" fill="white"/>
<path d="M114.091 48.2021H473.835C475.205 48.2021 476.52 48.7471 477.488 49.717C478.457 50.6869 479.002 52.0025 479.002 53.3742V296.068C479.002 297.44 478.457 298.755 477.488 299.725C476.52 300.695 475.205 301.24 473.835 301.24H114.091C112.72 301.24 111.406 300.695 110.437 299.725C109.468 298.755 108.924 297.44 108.924 296.068V53.3742C108.924 52.0025 109.468 50.6869 110.437 49.717C111.406 48.7471 112.72 48.2021 114.091 48.2021Z" fill="#E6E6E6"/>
<path d="M118.644 54.0229H468.89C470.261 54.0229 471.575 54.5678 472.544 55.5377C473.513 56.5077 474.057 57.8232 474.057 59.1949V288.938C474.057 290.31 473.513 291.626 472.544 292.595C471.575 293.565 470.261 294.11 468.89 294.11H118.644C117.274 294.11 115.96 293.565 114.991 292.595C114.022 291.626 113.478 290.31 113.478 288.938V59.1949C113.478 57.8232 114.022 56.5077 114.991 55.5377C115.96 54.5678 117.274 54.0229 118.644 54.0229Z" fill="white"/>
<path d="M365.942 213.621C364.563 213.62 363.2 213.329 361.941 212.768C361.648 212.638 361.369 212.479 361.107 212.293L335.653 194.357C334.362 193.447 333.308 192.24 332.581 190.837C331.854 189.435 331.474 187.878 331.473 186.297V161.836C331.474 160.255 331.854 158.698 332.581 157.296C333.308 155.893 334.362 154.686 335.653 153.776L361.107 135.84C361.369 135.655 361.648 135.496 361.941 135.365C363.441 134.698 365.083 134.416 366.719 134.546C368.354 134.675 369.932 135.212 371.308 136.107C372.684 137.002 373.815 138.227 374.597 139.671C375.38 141.114 375.79 142.731 375.79 144.374V203.759C375.79 206.374 374.753 208.882 372.906 210.731C371.059 212.579 368.554 213.618 365.942 213.618L365.942 213.621Z" fill="#3F3D56"/>
<path d="M308.975 218.43H237.981C223.497 218.418 211.759 209.046 211.745 197.481V150.652C211.759 139.087 223.497 129.715 237.981 129.703H309.16C323.541 129.717 335.195 139.022 335.212 150.505V197.481C335.197 209.046 323.459 218.418 308.975 218.43Z" fill="#3F3D56"/>
<path d="M435.439 279.337C447.1 279.337 456.553 269.874 456.553 258.2C456.553 246.527 447.1 237.064 435.439 237.064C423.778 237.064 414.324 246.527 414.324 258.2C414.324 269.874 423.778 279.337 435.439 279.337Z" fill="#E6E6E6"/>
<path d="M446.405 257.822L429.575 248.094C429.509 248.056 429.433 248.036 429.357 248.036C429.28 248.036 429.205 248.056 429.138 248.094C429.072 248.133 429.016 248.188 428.978 248.254C428.94 248.321 428.92 248.396 428.92 248.473V267.928C428.92 268.004 428.94 268.08 428.978 268.146C429.016 268.213 429.072 268.268 429.138 268.307C429.205 268.345 429.28 268.365 429.357 268.365C429.433 268.365 429.509 268.345 429.575 268.307L446.405 258.579C446.472 258.541 446.527 258.486 446.565 258.419C446.604 258.353 446.624 258.277 446.624 258.2C446.624 258.124 446.604 258.048 446.565 257.982C446.527 257.915 446.472 257.86 446.405 257.822L429.575 248.094C429.509 248.056 429.433 248.036 429.357 248.036C429.28 248.036 429.205 248.056 429.138 248.094C429.072 248.133 429.016 248.188 428.978 248.254C428.94 248.321 428.92 248.396 428.92 248.473V267.928C428.92 268.004 428.94 268.08 428.978 268.146C429.016 268.213 429.072 268.268 429.138 268.307C429.205 268.345 429.28 268.365 429.357 268.365C429.433 268.365 429.509 268.345 429.575 268.307L446.405 258.579C446.472 258.541 446.527 258.486 446.565 258.419C446.604 258.353 446.624 258.277 446.624 258.2C446.624 258.124 446.604 258.048 446.565 257.982C446.527 257.915 446.472 257.86 446.405 257.822Z" fill="white"/>
<path d="M409.776 345.988C409.788 348.366 408.856 350.651 407.186 352.341C405.515 354.031 403.242 354.988 400.867 355H8.90882C7.7328 354.994 6.5695 354.756 5.48534 354.3C4.40118 353.844 3.41739 353.178 2.59014 352.341C1.76289 351.505 1.10839 350.513 0.663997 349.423C0.219606 348.333 -0.00596685 347.166 0.000153111 345.989V77.972C-0.0122659 75.5944 0.919317 73.3093 2.58997 71.6193C4.26062 69.9293 6.53349 68.9729 8.90857 68.9604H400.867C402.043 68.9665 403.206 69.2045 404.29 69.6607C405.375 70.1168 406.358 70.7823 407.186 71.6191C408.013 72.4559 408.667 73.4476 409.112 74.5376C409.556 75.6276 409.782 76.7945 409.776 77.9718V345.988Z" fill="#E6E6E6"/>
<path d="M405.152 341.599C405.152 343.91 404.235 346.127 402.603 347.761C400.97 349.395 398.756 350.313 396.448 350.313H13.5967C11.2881 350.313 9.07416 349.395 7.44178 347.761C5.8094 346.127 4.89233 343.91 4.89233 341.599V82.4837C4.89233 80.1727 5.8094 77.9564 7.44178 76.3223C9.07416 74.6881 11.2881 73.7701 13.5967 73.7701H396.465C398.771 73.7748 400.98 74.6948 402.609 76.3284C404.237 77.962 405.152 80.1757 405.152 82.4837V341.599Z" fill="white"/>
<path d="M25.3542 85.02H385.099C386.469 85.02 387.783 85.5649 388.752 86.5348C389.721 87.5048 390.265 88.8203 390.265 90.192V332.886C390.265 334.258 389.721 335.573 388.752 336.543C387.783 337.513 386.469 338.058 385.099 338.058H25.3542C23.984 338.058 22.6698 337.513 21.7009 336.543C20.732 335.573 20.1877 334.258 20.1877 332.886V90.192C20.1877 88.8203 20.732 87.5048 21.7009 86.5348C22.6698 85.5649 23.984 85.02 25.3542 85.02Z" fill="#E6E6E6"/>
<path d="M29.9078 90.8407H380.154C380.832 90.8407 381.504 90.9745 382.131 91.2344C382.758 91.4943 383.328 91.8753 383.807 92.3556C384.287 92.8358 384.668 93.406 384.927 94.0335C385.187 94.661 385.321 95.3336 385.321 96.0128V325.756C385.321 326.435 385.187 327.108 384.927 327.735C384.668 328.363 384.287 328.933 383.807 329.413C383.328 329.894 382.758 330.275 382.131 330.534C381.504 330.794 380.832 330.928 380.154 330.928H29.9078C28.5375 330.928 27.2234 330.383 26.2545 329.413C25.2856 328.443 24.7412 327.128 24.7412 325.756V96.0128C24.7412 94.641 25.2856 93.3255 26.2545 92.3556C27.2234 91.3856 28.5375 90.8407 29.9078 90.8407Z" fill="white"/>
<path d="M277.206 250.439C275.827 250.438 274.464 250.147 273.205 249.586C272.912 249.455 272.632 249.296 272.371 249.111L246.916 231.175C245.625 230.265 244.572 229.058 243.845 227.655C243.117 226.253 242.737 224.696 242.737 223.115V198.654C242.737 197.073 243.117 195.516 243.845 194.114C244.572 192.711 245.625 191.504 246.916 190.594L272.371 172.658C272.632 172.472 272.912 172.314 273.205 172.183C274.704 171.516 276.346 171.234 277.982 171.364C279.618 171.493 281.195 172.03 282.571 172.925C283.947 173.82 285.078 175.045 285.861 176.489C286.644 177.932 287.054 179.549 287.054 181.192V240.577C287.054 243.192 286.016 245.7 284.169 247.548C282.322 249.397 279.817 250.436 277.206 250.436L277.206 250.439Z" fill="#E71D36"/>
<path d="M220.239 255.248H149.245C134.761 255.236 123.023 245.864 123.008 234.299V187.47C123.023 175.905 134.761 166.533 149.245 166.521H220.424C234.805 166.534 246.458 175.84 246.475 187.322V234.299C246.46 245.864 234.723 255.236 220.239 255.248Z" fill="#E71D36"/>
<path d="M346.702 316.155C358.363 316.155 367.816 306.692 367.816 295.018C367.816 283.345 358.363 273.882 346.702 273.882C335.041 273.882 325.588 283.345 325.588 295.018C325.588 306.692 335.041 316.155 346.702 316.155Z" fill="#3F3D56"/>
<path d="M357.669 294.639L340.839 284.912C340.772 284.874 340.697 284.854 340.62 284.854C340.543 284.854 340.468 284.874 340.402 284.912C340.335 284.951 340.28 285.006 340.242 285.072C340.203 285.139 340.183 285.214 340.183 285.291V304.746C340.183 304.822 340.203 304.898 340.242 304.964C340.28 305.031 340.335 305.086 340.402 305.124C340.468 305.163 340.543 305.183 340.62 305.183C340.697 305.183 340.772 305.163 340.839 305.124L357.669 295.397C357.735 295.359 357.791 295.304 357.829 295.237C357.867 295.171 357.887 295.095 357.887 295.018C357.887 294.941 357.867 294.866 357.829 294.8C357.791 294.733 357.735 294.678 357.669 294.639L340.839 284.912C340.772 284.874 340.697 284.854 340.62 284.854C340.543 284.854 340.468 284.874 340.402 284.912C340.335 284.951 340.28 285.006 340.242 285.072C340.203 285.139 340.183 285.214 340.183 285.291V304.746C340.183 304.822 340.203 304.898 340.242 304.964C340.28 305.031 340.335 305.086 340.402 305.124C340.468 305.163 340.543 305.183 340.62 305.183C340.697 305.183 340.772 305.163 340.839 305.124L357.669 295.397C357.735 295.359 357.791 295.304 357.829 295.237C357.867 295.171 357.887 295.095 357.887 295.018C357.887 294.941 357.867 294.866 357.829 294.8C357.791 294.733 357.735 294.678 357.669 294.639Z" fill="white"/>
</g>
<defs>
<clipPath id="clip0_1504_69">
<rect width="589" height="355" fill="white"/>
</clipPath>
</defs>
</svg>
