<svg width="475" height="673" viewBox="0 0 475 673" fill="none" xmlns="http://www.w3.org/2000/svg">
<g clip-path="url(#clip0_1506_70)">
<path d="M398.317 36.5525H0.993286C0.727862 36.5466 0.475267 36.4371 0.289612 36.2473C0.103956 36.0576 0 35.8026 0 35.5371C0 35.2717 0.103956 35.0167 0.289612 34.8269C0.475267 34.6372 0.727862 34.5276 0.993286 34.5218H398.317C398.582 34.5276 398.835 34.6372 399.02 34.8269C399.206 35.0167 399.31 35.2717 399.31 35.5371C399.31 35.8026 399.206 36.0576 399.02 36.2473C398.835 36.4371 398.582 36.5466 398.317 36.5525Z" fill="#CACACA"/>
<path d="M23.3482 22.3376C29.3821 22.3376 34.2735 17.3372 34.2735 11.1688C34.2735 5.00045 29.3821 0 23.3482 0C17.3143 0 12.4229 5.00045 12.4229 11.1688C12.4229 17.3372 17.3143 22.3376 23.3482 22.3376Z" fill="#3F3D56"/>
<path d="M61.0904 22.3376C67.1243 22.3376 72.0157 17.3372 72.0157 11.1688C72.0157 5.00045 67.1243 0 61.0904 0C55.0565 0 50.165 5.00045 50.165 11.1688C50.165 17.3372 55.0565 22.3376 61.0904 22.3376Z" fill="#3F3D56"/>
<path d="M98.8326 22.3376C104.866 22.3376 109.758 17.3372 109.758 11.1688C109.758 5.00045 104.866 0 98.8326 0C92.7987 0 87.9072 5.00045 87.9072 11.1688C87.9072 17.3372 92.7987 22.3376 98.8326 22.3376Z" fill="#3F3D56"/>
<path d="M375.703 6.83163H348.887C348.356 6.81991 347.851 6.6008 347.48 6.22125C347.108 5.8417 346.9 5.33187 346.9 4.80093C346.9 4.26999 347.108 3.76015 347.48 3.3806C347.851 3.00105 348.356 2.78195 348.887 2.77023H375.703C376.234 2.78195 376.739 3.00105 377.111 3.3806C377.482 3.76015 377.69 4.26999 377.69 4.80093C377.69 5.33187 377.482 5.8417 377.111 6.22125C376.739 6.6008 376.234 6.81991 375.703 6.83163Z" fill="#3F3D56"/>
<path d="M375.703 14.4467H348.887C348.356 14.435 347.851 14.2159 347.48 13.8363C347.108 13.4568 346.9 12.9469 346.9 12.416C346.9 11.8851 347.108 11.3752 347.48 10.9957C347.851 10.6161 348.356 10.397 348.887 10.3853H375.703C376.234 10.397 376.739 10.6161 377.111 10.9957C377.482 11.3752 377.69 11.8851 377.69 12.416C377.69 12.9469 377.482 13.4568 377.111 13.8363C376.739 14.2159 376.234 14.435 375.703 14.4467Z" fill="#3F3D56"/>
<path d="M375.703 22.0618H348.887C348.356 22.0501 347.851 21.831 347.48 21.4515C347.108 21.0719 346.9 20.5621 346.9 20.0311C346.9 19.5002 347.108 18.9904 347.48 18.6108C347.851 18.2313 348.356 18.0121 348.887 18.0004H375.703C376.234 18.0121 376.739 18.2313 377.111 18.6108C377.482 18.9904 377.69 19.5002 377.69 20.0311C377.69 20.5621 377.482 21.0719 377.111 21.4515C376.739 21.831 376.234 22.0501 375.703 22.0618Z" fill="#3F3D56"/>
<path d="M341.228 321.969H58.0814C49.3314 321.959 40.9428 318.479 34.7558 312.292C28.5687 306.104 25.0886 297.716 25.0789 288.966V134.751C25.0887 126.001 28.5689 117.612 34.756 111.425C40.9431 105.239 49.3317 101.759 58.0814 101.749H341.228C349.978 101.759 358.367 105.239 364.554 111.425C370.741 117.612 374.221 126.001 374.231 134.751V288.966C374.221 297.716 370.741 306.104 364.554 312.292C358.367 318.479 349.978 321.959 341.228 321.969Z" fill="#F2F2F2"/>
<path d="M199.655 265.501C229.28 265.501 253.297 241.485 253.297 211.859C253.297 182.234 229.28 158.217 199.655 158.217C170.029 158.217 146.013 182.234 146.013 211.859C146.013 241.485 170.029 265.501 199.655 265.501Z" fill="#011627"/>
<path d="M189.338 236.954C188.579 236.952 187.832 236.758 187.167 236.389C186.457 236.006 185.864 235.436 185.453 234.741C185.042 234.046 184.828 233.252 184.834 232.445V195.271C184.834 194.465 185.051 193.674 185.461 192.98C185.872 192.287 186.461 191.716 187.167 191.328C187.874 190.939 188.671 190.748 189.477 190.774C190.283 190.799 191.067 191.041 191.747 191.473L227.01 210.06C227.65 210.466 228.176 211.027 228.541 211.691C228.906 212.355 229.097 213.101 229.097 213.858C229.097 214.616 228.906 215.361 228.541 216.025C228.176 216.689 227.65 217.25 227.01 217.657L191.747 236.243C191.028 236.705 190.193 236.952 189.338 236.954Z" fill="white"/>
<path d="M370.764 413.704C369.729 412.999 368.862 412.075 368.223 410.998C367.584 409.921 367.189 408.717 367.065 407.471C366.942 406.225 367.093 404.966 367.509 403.785C367.924 402.604 368.594 401.528 369.47 400.633L355.906 373.38L371.609 375.292L382.082 400.879C383.487 402.451 384.267 404.483 384.274 406.592C384.281 408.7 383.515 410.738 382.12 412.319C380.724 413.9 378.798 414.914 376.705 415.169C374.612 415.425 372.498 414.903 370.764 413.704Z" fill="#FFB8B8"/>
<path d="M315.777 319.935L326.066 318.514C326.066 318.514 327.06 334.027 331.982 336.378C336.904 338.73 335.244 339.116 335.825 341.605C336.384 343.357 337.306 344.972 338.53 346.344C339.754 347.716 341.254 348.816 342.931 349.57C346.829 351.285 364.564 394.409 364.564 394.409L379.497 390.927C378.115 387.183 377.205 383.281 376.788 379.312C376.264 373.312 369.463 359.152 367.223 357.051C364.984 354.949 365.869 351.243 364.708 346.266C363.548 341.288 364.353 345.903 362.419 337.607C360.484 329.311 338.734 279.592 337.822 271.932C336.911 264.272 326.237 259.764 326.237 259.764L317.941 261.698L315.777 319.935Z" fill="#3F3D56"/>
<path d="M275.419 345.607L258.78 423.717L349.603 416.871L322.419 340.607L275.419 345.607Z" fill="#FFB8B8"/>
<path d="M470.925 598.19C468.221 607.965 464 617.254 458.415 625.72C445.935 644.59 428.075 659.02 408.445 670.57C407.085 671.38 405.705 672.17 404.325 672.95H390.555L390.075 671.85V671.84L389.515 670.57L389.445 670.42L389.415 670.57L388.865 672.95H382.105C381.545 672.16 380.995 671.37 380.455 670.57C379.665 669.4 378.905 668.22 378.185 667.02C376.914 664.921 375.778 662.743 374.785 660.5C374.665 660.25 374.565 660 374.465 659.75L374.915 659.26L373.045 651.08L376.805 650.46L372.685 637.75C372.835 637.28 373.005 636.81 373.185 636.34C375.495 630.49 379.835 626.12 384.985 622.45C390.285 618.66 396.455 615.62 402.125 612.46C404.785 610.97 407.405 609.4 409.955 607.74V607.73C413.215 605.62 416.378 603.363 419.445 600.96C419.497 600.926 419.547 600.89 419.595 600.85C419.637 600.819 419.677 600.786 419.715 600.75C433.463 590.009 445.097 576.809 454.025 561.82L454.029 561.819L454.032 561.817L454.034 561.814L454.035 561.81C454.335 561.33 454.615 560.85 454.895 560.36V560.35C458.551 554.061 461.698 547.491 464.305 540.7V540.69C464.505 540.19 464.685 539.69 464.875 539.19C465.135 539.63 465.385 540.07 465.625 540.51L465.629 540.51L465.632 540.513L465.634 540.516L465.635 540.52C475.335 557.87 476.255 578.77 470.925 598.19Z" fill="#F0F0F0"/>
<path d="M465.635 540.52C465.732 549.779 464.769 559.019 462.765 568.06C461.864 572.197 460.742 576.283 459.405 580.3C456.808 588.159 453.413 595.732 449.275 602.9C449.045 603.29 448.825 603.67 448.585 604.05V604.06C446.816 607.042 444.897 609.932 442.835 612.72C439.714 617.16 435.859 621.036 431.435 624.18C427.821 626.567 423.735 628.147 419.455 628.81C418.655 628.96 417.835 629.07 417.005 629.17C413.695 629.56 410.275 629.71 406.995 630.41C405.333 630.738 403.716 631.258 402.175 631.96C396.895 634.41 393.925 639.54 392.625 645.02C392.395 645.98 392.215 646.95 392.075 647.92C390.985 655.37 392.185 663.11 391.565 670.57C391.495 671.36 391.405 672.16 391.295 672.95H390.555L390.075 671.85V671.84C390.125 671.42 390.165 671 390.205 670.57C390.445 666.905 390.475 663.229 390.295 659.56C390.255 657.91 390.225 656.25 390.245 654.59C390.265 653.26 390.315 651.93 390.415 650.61V650.6C390.485 649.78 390.565 648.97 390.675 648.16C390.992 645.68 391.603 643.246 392.495 640.91C393.365 638.503 394.734 636.307 396.513 634.466C398.291 632.625 400.439 631.182 402.815 630.23C404.266 629.686 405.762 629.267 407.285 628.98C410.635 628.34 414.095 628.18 417.465 627.76C417.825 627.72 418.185 627.67 418.535 627.61C418.985 627.54 419.425 627.46 419.865 627.38C424.274 626.597 428.439 624.792 432.025 622.11C436.286 618.736 439.992 614.714 443.005 610.19C444.645 607.84 446.205 605.44 447.655 602.97C447.655 602.969 447.655 602.967 447.655 602.966C447.656 602.965 447.657 602.964 447.658 602.963C447.659 602.962 447.66 602.961 447.661 602.961C447.662 602.96 447.663 602.96 447.665 602.96C447.735 602.84 447.805 602.73 447.875 602.61L447.885 602.59C454.104 591.961 458.645 580.435 461.345 568.42C461.435 567.98 461.535 567.54 461.635 567.1C463.491 558.424 464.386 549.571 464.305 540.7V540.69C464.305 540.27 464.295 539.86 464.285 539.44C464.265 538.58 465.595 538.39 465.615 539.25C465.625 539.67 465.635 540.09 465.625 540.51C465.626 540.51 465.627 540.51 465.629 540.511C465.63 540.511 465.631 540.512 465.632 540.513C465.633 540.514 465.633 540.515 465.634 540.516C465.634 540.517 465.635 540.519 465.635 540.52Z" fill="white"/>
<path d="M448.014 603.779C451.824 605.714 456.199 606.232 460.356 605.24C464.513 604.248 468.182 601.811 470.708 598.363C471.217 597.664 470.154 596.84 469.645 597.541C467.298 600.755 463.88 603.025 460.007 603.941C456.134 604.857 452.062 604.359 448.524 602.535C447.755 602.14 447.249 603.386 448.014 603.779Z" fill="white"/>
<path d="M419.993 627.778C417.209 619.497 417.648 610.471 421.223 602.499C421.577 601.709 420.334 601.2 419.979 601.989C416.274 610.292 415.837 619.686 418.753 628.297C419.032 629.117 420.27 628.594 419.993 627.778Z" fill="white"/>
<path d="M462.021 567.223C460.391 566.781 458.896 565.941 457.67 564.779C456.444 563.617 455.526 562.168 454.999 560.563C454.731 559.74 453.493 560.264 453.759 561.082C454.35 562.852 455.366 564.451 456.717 565.738C458.068 567.025 459.714 567.962 461.511 568.466C461.677 568.528 461.859 568.524 462.022 568.456C462.185 568.388 462.316 568.26 462.388 568.099C462.455 567.934 462.454 567.75 462.385 567.585C462.316 567.421 462.186 567.291 462.021 567.223Z" fill="white"/>
<path d="M409.955 607.73V607.74C409.645 614.881 408.752 621.984 407.285 628.98V628.99C407.205 629.47 407.095 629.94 406.995 630.41C404.581 641.229 401.198 651.808 396.885 662.02C395.695 664.9 394.448 667.75 393.145 670.57C392.785 671.37 392.415 672.16 392.035 672.95H390.555L390.075 671.85V671.84L389.515 670.57L389.445 670.42L389.415 670.57L388.865 672.95H374.565L371.785 670.57L367.735 667.1L373.395 660.92L374.325 659.9L374.465 659.75L374.915 659.26L373.045 651.08L376.805 650.46L372.685 637.75L370.735 631.74L370.245 630.23L367.395 621.44L358.795 623.05L357.395 618.15C359.973 612.175 362.118 606.022 363.815 599.74C363.825 599.69 363.845 599.65 363.855 599.6C368.398 582.678 369.761 565.059 367.875 547.64V547.63C367.815 547.07 367.745 546.5 367.665 545.95V545.93C366.808 538.711 365.363 531.574 363.345 524.59C363.205 524.06 363.045 523.54 362.895 523.02C363.355 523.22 363.805 523.41 364.265 523.61L364.275 523.62H364.295C365.025 523.94 365.755 524.28 366.465 524.64C383.525 532.93 396.075 548.49 403.205 566.43C403.225 566.48 403.245 566.52 403.265 566.57C406.985 575.974 409.202 585.906 409.835 596C410.074 599.905 410.115 603.82 409.955 607.73Z" fill="#F0F0F0"/>
<path d="M384.005 672.95H382.425C381.925 672.14 381.385 671.35 380.845 670.57C379.985 669.36 379.098 668.177 378.185 667.02C377.395 666.02 376.605 665.03 375.815 664.04C374.995 663.01 374.185 661.98 373.395 660.92L374.325 659.9C374.475 660.1 374.625 660.3 374.785 660.5C377.345 663.87 380.115 667.11 382.485 670.57C383.015 671.35 383.525 672.14 384.005 672.95Z" fill="white"/>
<path d="M362.563 523.579C362.823 523.909 363.093 524.249 363.343 524.589C365.293 527.119 367.136 529.729 368.873 532.419C371.966 537.165 374.713 542.128 377.093 547.269C377.283 547.669 377.473 548.079 377.653 548.489C382.746 559.722 386.065 571.678 387.493 583.929C387.513 584.049 387.523 584.159 387.533 584.279C387.863 587.139 388.076 590.009 388.173 592.889C388.492 598.312 387.955 603.752 386.583 609.009C386.383 609.699 386.163 610.379 385.923 611.039C385.321 612.656 384.568 614.213 383.673 615.689C383.03 616.765 382.315 617.798 381.533 618.779C381.063 619.379 380.573 619.969 380.053 620.539C379.753 620.869 379.443 621.199 379.133 621.529C378.873 621.779 378.623 622.039 378.363 622.289C375.663 624.909 372.683 627.339 370.243 630.229L370.733 631.739C373.083 628.759 376.113 626.289 378.843 623.689C380.557 622.077 382.117 620.309 383.503 618.409C383.683 618.149 383.873 617.889 384.043 617.619C384.969 616.265 385.769 614.829 386.433 613.329C386.773 612.579 387.083 611.809 387.363 611.009C388.997 605.838 389.741 600.428 389.563 595.009C389.531 591.537 389.324 588.069 388.943 584.619C388.903 584.169 388.853 583.729 388.793 583.279C387.779 575.065 385.929 566.977 383.273 559.139C379.911 549.195 375.286 539.724 369.513 530.959C367.863 528.449 366.113 525.999 364.263 523.609C364.023 523.279 363.773 522.959 363.513 522.629C362.983 521.949 362.033 522.899 362.563 523.579Z" fill="white"/>
<path d="M388.317 584.745C392.525 583.996 396.329 581.776 399.051 578.481C401.773 575.186 403.235 571.031 403.176 566.757C403.172 566.583 403.101 566.417 402.977 566.294C402.853 566.172 402.686 566.102 402.512 566.1C402.338 566.098 402.169 566.164 402.043 566.283C401.916 566.403 401.84 566.567 401.832 566.741C401.894 570.72 400.532 574.591 397.991 577.654C395.45 580.717 391.898 582.771 387.975 583.445C387.123 583.592 387.47 584.892 388.317 584.745Z" fill="white"/>
<path d="M380.393 620.778C373.184 615.842 368.1 608.371 366.155 599.853C365.963 599.009 364.663 599.352 364.855 600.195C366.896 609.054 372.202 616.819 379.716 621.938C380.432 622.426 381.106 621.262 380.393 620.778Z" fill="white"/>
<path d="M377.492 547.124C375.924 547.753 374.224 547.982 372.546 547.792C370.868 547.602 369.263 546.998 367.875 546.035C367.165 545.538 366.492 546.702 367.198 547.195C368.735 548.253 370.509 548.918 372.362 549.132C374.216 549.346 376.095 549.103 377.833 548.424C378.002 548.373 378.146 548.26 378.235 548.108C378.324 547.956 378.352 547.775 378.312 547.603C378.266 547.431 378.154 547.284 378 547.194C377.847 547.105 377.664 547.079 377.492 547.124Z" fill="white"/>
<path d="M288.077 652.388H277.875L273.022 613.036L288.079 613.037L288.077 652.388Z" fill="#FFB8B8"/>
<path d="M293.566 671.76H286.327L285.034 664.925L281.725 671.76H262.524C261.604 671.76 260.708 671.466 259.966 670.92C259.225 670.375 258.677 669.607 258.404 668.728C258.13 667.849 258.144 666.906 258.444 666.036C258.744 665.166 259.314 664.415 260.072 663.892L275.405 653.302V646.393L291.532 647.355L293.566 671.76Z" fill="#2F2E41"/>
<path d="M384.502 647.313L374.532 649.475L361.446 612.047L376.161 608.855L384.502 647.313Z" fill="#FFB8B8"/>
<path d="M393.973 665.08L386.898 666.615L384.186 660.21L382.401 667.591L363.637 671.661C362.737 671.856 361.799 671.759 360.959 671.383C360.119 671.007 359.421 670.373 358.967 669.572C358.513 668.771 358.327 667.847 358.436 666.933C358.545 666.019 358.943 665.164 359.572 664.492L372.311 650.893L370.847 644.14L386.812 641.662L393.973 665.08Z" fill="#2F2E41"/>
<path d="M456.355 671.76C456.355 671.916 456.325 672.071 456.265 672.216C456.206 672.36 456.118 672.492 456.007 672.602C455.897 672.713 455.765 672.801 455.621 672.86C455.476 672.92 455.321 672.95 455.165 672.95H174.875C174.559 672.95 174.257 672.824 174.033 672.601C173.81 672.378 173.685 672.075 173.685 671.76C173.685 671.444 173.81 671.142 174.033 670.918C174.257 670.695 174.559 670.57 174.875 670.57H455.165C455.321 670.569 455.476 670.6 455.621 670.659C455.765 670.719 455.897 670.807 456.007 670.917C456.118 671.028 456.206 671.159 456.265 671.304C456.325 671.448 456.355 671.603 456.355 671.76Z" fill="#CCCCCC"/>
<path d="M256.462 476.607C263.622 515.957 261.412 490.947 261.412 490.947C261.412 490.947 256.042 497.207 259.622 500.787C263.202 504.367 259.622 511.517 259.622 511.517L272.419 615.607L274.419 624.607H288.419L289.419 612.607L295.812 554.417C295.812 554.417 299.392 547.257 297.602 545.467C295.812 543.677 299.392 532.947 299.392 532.947L303.862 447.987L320.592 499.997C320.592 499.997 317.902 503.577 320.592 506.257C323.272 508.937 339.632 563.357 339.632 563.357L359.419 610.607L360.419 611.607L365.419 624.607L378.419 618.607L370.702 551.987L370.382 550.557L370.042 549.047C370.042 549.047 371.832 544.577 369.152 541.887C368.368 541.067 367.795 540.069 367.483 538.978C367.171 537.887 367.13 536.737 367.362 535.627C367.449 535.533 367.53 535.433 367.602 535.327C367.918 534.892 368.137 534.394 368.242 533.867C368.482 532.747 368.272 531.177 366.462 529.367C365.952 528.825 365.524 528.212 365.192 527.547C362.472 522.397 361.102 511.487 361.102 511.487C361.102 511.487 358.682 425.077 350.762 411.877C350.342 411.187 331.859 363.877 331.419 363.607C322.479 358.247 270.419 365.607 270.419 365.607C270.419 365.607 254.562 411.047 254.372 412.227C253.342 418.857 250.392 443.227 256.462 476.607Z" fill="#2F2E41"/>
<path d="M215.725 222.275C215.046 223.327 214.605 224.515 214.434 225.756C214.264 226.997 214.367 228.26 214.737 229.456C215.108 230.652 215.736 231.753 216.577 232.68C217.419 233.608 218.453 234.339 219.608 234.824L217.69 265.205L231.419 257.345L231.135 229.7C231.82 227.706 231.75 225.53 230.938 223.584C230.126 221.638 228.628 220.058 226.728 219.143C224.829 218.228 222.66 218.041 220.632 218.618C218.604 219.196 216.858 220.497 215.725 222.275Z" fill="#FFB8B8"/>
<path d="M268.76 271.609C268.76 271.609 276.118 260.645 290.6 246.164C298.267 243.608 311.551 245.098 316.156 246.164C337.453 274.275 338.794 272.407 344.337 288.114C345.775 292.187 346.493 296.101 345.855 299.295C343.299 312.073 325.396 343.636 326.247 347.043C327.099 350.451 333.062 354.71 327.099 354.71C321.136 354.71 271.715 349.163 273.419 346.607C275.122 344.052 268.76 271.609 268.76 271.609Z" fill="#3F3D56"/>
<path d="M294.776 235.26C308.399 235.26 319.443 224.216 319.443 210.593C319.443 196.97 308.399 185.926 294.776 185.926C281.152 185.926 270.108 196.97 270.108 210.593C270.108 224.216 281.152 235.26 294.776 235.26Z" fill="#FFB8B8"/>
<path d="M299.055 263.253C299.055 263.253 278.612 245.111 252.778 281.859L233.028 291.359L232.419 268.607L235.908 264.053L234.419 239.607L215.149 242.844L213.72 258.72L210.419 265.607L212.574 271.449L210.303 296.677L211.419 305.607C211.419 305.607 212.772 317.014 220.749 321.763C222.873 323.035 225.183 323.966 227.596 324.521C232.323 325.602 238.033 325.353 244.808 322.647C258.888 317.127 272.625 310.769 285.945 303.607L299.055 263.253Z" fill="#3F3D56"/>
<path d="M349.999 263.467C355.219 261.617 360.439 259.764 365.659 257.907C364.759 256.398 363.613 255.049 362.269 253.917C357.299 249.767 350.439 249.017 344.129 247.617C337.809 246.217 330.949 243.347 328.639 237.307C326.239 231.027 329.719 224.247 331.739 217.847C334.569 208.917 334.509 198.947 330.719 190.387C326.929 181.827 319.229 174.887 310.089 172.847C300.949 170.817 290.619 174.127 284.999 181.607C281.378 180.521 277.484 180.798 274.054 182.386C270.623 183.974 267.893 186.764 266.379 190.227C265.069 193.507 265.029 197.457 266.979 200.407C268.929 203.357 273.099 204.867 276.239 203.227L274.419 198.607C280.049 200.517 283.709 210.697 282.949 216.597C282.199 222.487 278.759 227.647 275.269 232.457C271.779 237.267 268.059 242.127 266.559 247.877C264.399 256.147 267.319 265.187 272.719 271.817C278.119 278.447 285.729 282.947 293.609 286.257C299.507 288.737 305.637 290.626 311.909 291.897C310.789 289.717 309.679 287.537 308.559 285.357L321.849 293.397C324.419 293.647 327.009 293.797 329.599 293.847C337.139 293.977 344.828 293.187 351.729 290.177C358.639 287.157 364.709 281.687 367.209 274.577C368.01 272.278 368.389 269.852 368.328 267.417C362.219 266.097 356.109 264.781 349.999 263.467Z" fill="#2F2E41"/>
</g>
<defs>
<clipPath id="clip0_1506_70">
<rect width="474.16" height="672.95" fill="white"/>
</clipPath>
</defs>
</svg>
