<svg width="50" height="50" viewBox="0 0 50 50" fill="none" xmlns="http://www.w3.org/2000/svg">
<g clip-path="url(#clip0_18_2332)">
<path fill-rule="evenodd" clip-rule="evenodd" d="M23.0251 40.9219C26.7533 40.3344 31.7626 41.2281 34.9533 44.0594C38.1439 46.8906 42.6189 46.5625 46.8751 47.275V50C43.3001 49.3969 36.3439 48.7 33.9064 46.5375C31.4751 44.3813 27.4626 43.1313 23.697 43.7281C20.272 44.2688 19.5751 41.4656 23.0251 40.9219Z" fill="#3F3D56"/>
<path fill-rule="evenodd" clip-rule="evenodd" d="M23.4375 0.518768C10.6344 0.518768 0.25 10.8406 0.25 23.5688C0.25 36.2969 10.6344 46.6156 23.4375 46.6156C36.2438 46.6156 46.625 36.2969 46.625 23.5688C46.625 10.8406 36.2438 0.518768 23.4375 0.518768ZM15.625 9.37502C16.446 9.37522 17.2589 9.53713 18.0173 9.85149C18.7756 10.1658 19.4647 10.6265 20.0451 11.2072C20.6254 11.7878 21.0857 12.4771 21.3997 13.2357C21.7137 13.9942 21.8752 14.8072 21.875 15.6281C21.8748 16.4491 21.7129 17.262 21.3985 18.0204C21.0842 18.7788 20.6235 19.4678 20.0429 20.0482C19.4622 20.6286 18.7729 21.0889 18.0144 21.4029C17.2558 21.7168 16.4428 21.8783 15.6219 21.8781C13.9639 21.8777 12.3739 21.2187 11.2018 20.046C10.0297 18.8733 9.37146 17.283 9.37188 15.625C9.37229 13.967 10.0313 12.3771 11.204 11.205C12.3767 10.0329 13.967 9.3746 15.625 9.37502ZM15.625 37.5C14.804 37.4998 13.9911 37.3379 13.2327 37.0235C12.4744 36.7092 11.7853 36.2485 11.2049 35.6679C10.6246 35.0872 10.1643 34.3979 9.85027 33.6394C9.53629 32.8808 9.37479 32.0679 9.375 31.2469C9.37521 30.4259 9.53711 29.613 9.85147 28.8546C10.1658 28.0962 10.6265 27.4072 11.2071 26.8268C11.7878 26.2465 12.4771 25.7861 13.2356 25.4722C13.9942 25.1582 14.8072 24.9967 15.6281 24.9969C17.2861 24.9973 18.8761 25.6563 20.0482 26.829C21.2203 28.0017 21.8785 29.592 21.8781 31.25C21.8777 32.908 21.2187 34.498 20.046 35.6701C18.8733 36.8422 17.283 37.5004 15.625 37.5ZM20.9656 23.4813C20.9656 22.0594 22.1531 20.9094 23.6094 20.9094C25.0719 20.9094 26.2594 22.0594 26.2594 23.4813C26.2594 24.9 25.0719 26.0531 23.6094 26.0531C22.9181 26.0615 22.2517 25.7955 21.7561 25.3134C21.2606 24.8314 20.9763 24.1725 20.9656 23.4813ZM31.25 37.5C30.429 37.4998 29.6161 37.3379 28.8577 37.0235C28.0994 36.7092 27.4103 36.2485 26.8299 35.6679C26.2496 35.0872 25.7893 34.3979 25.4753 33.6394C25.1613 32.8808 24.9998 32.0679 25 31.2469C25.0002 30.4259 25.1621 29.613 25.4765 28.8546C25.7908 28.0962 26.2515 27.4072 26.8321 26.8268C27.4128 26.2465 28.1021 25.7861 28.8606 25.4722C29.6192 25.1582 30.4322 24.9967 31.2531 24.9969C32.9111 24.9973 34.5011 25.6563 35.6732 26.829C36.8453 28.0017 37.5035 29.592 37.5031 31.25C37.5027 32.908 36.8437 34.498 35.671 35.6701C34.4983 36.8422 32.908 37.5004 31.25 37.5ZM31.25 21.875C30.429 21.8748 29.6161 21.7129 28.8577 21.3985C28.0994 21.0842 27.4103 20.6235 26.8299 20.0429C26.2496 19.4622 25.7893 18.7729 25.4753 18.0144C25.1613 17.2558 24.9998 16.4429 25 15.6219C25.0002 14.8009 25.1621 13.988 25.4765 13.2296C25.7908 12.4712 26.2515 11.7822 26.8321 11.2018C27.4128 10.6215 28.1021 10.1611 28.8606 9.84717C29.6192 9.53319 30.4322 9.37169 31.2531 9.37189C32.9111 9.37231 34.5011 10.0313 35.6732 11.204C36.8453 12.3767 37.5035 13.967 37.5031 15.625C37.5027 17.283 36.8437 18.873 35.671 20.0451C34.4983 21.2172 32.908 21.8754 31.25 21.875Z" fill="#3F3D56"/>
</g>
<defs>
<clipPath id="clip0_18_2332">
<rect width="50" height="50" fill="white"/>
</clipPath>
</defs>
</svg>
