<svg width="36" height="36" viewBox="0 0 36 36" fill="none" xmlns="http://www.w3.org/2000/svg">
<g clip-path="url(#clip0_2_1011)">
<path fill-rule="evenodd" clip-rule="evenodd" d="M16.5781 29.4637C19.2623 29.0407 22.8691 29.6842 25.1663 31.7227C27.4636 33.7612 30.6856 33.525 33.7501 34.038V36C31.1761 35.5657 26.1676 35.064 24.4126 33.507C22.6621 31.9545 19.7731 31.0545 17.0618 31.4842C14.5958 31.8735 14.0941 29.8552 16.5781 29.4637Z" fill="#E71D36"/>
<path fill-rule="evenodd" clip-rule="evenodd" d="M16.8751 0.373505C7.6568 0.373505 0.180054 7.80525 0.180054 16.9695C0.180054 26.1338 7.6568 33.5633 16.8751 33.5633C26.0956 33.5633 33.5701 26.1338 33.5701 16.9695C33.5701 7.80525 26.0956 0.373505 16.8751 0.373505ZM11.2501 6.75C11.8412 6.75015 12.4264 6.86672 12.9725 7.09306C13.5185 7.3194 14.0146 7.65108 14.4325 8.06915C14.8504 8.48722 15.1818 8.9835 15.4079 9.52966C15.6339 10.0758 15.7502 10.6612 15.7501 11.2523C15.7499 11.8433 15.6333 12.4286 15.407 12.9747C15.1807 13.5207 14.849 14.0168 14.4309 14.4347C14.0128 14.8526 13.5166 15.184 12.9704 15.4101C12.4242 15.6361 11.8389 15.7524 11.2478 15.7523C10.054 15.752 8.90927 15.2774 8.06536 14.4331C7.22144 13.5888 6.74751 12.4438 6.7478 11.25C6.7481 10.0562 7.22261 8.91147 8.06695 8.06756C8.91128 7.22364 10.0563 6.74971 11.2501 6.75ZM11.2501 27C10.659 26.9999 10.0737 26.8833 9.52763 26.6569C8.98159 26.4306 8.48547 26.0989 8.06761 25.6809C7.64974 25.2628 7.31832 24.7665 7.09225 24.2203C6.86619 23.6742 6.74991 23.0888 6.75005 22.4978C6.7502 21.9067 6.86677 21.3214 7.09311 20.7753C7.31945 20.2293 7.65113 19.7332 8.0692 19.3153C8.48727 18.8974 8.98355 18.566 9.52971 18.34C10.0759 18.1139 10.6612 17.9976 11.2523 17.9978C12.4461 17.9981 13.5908 18.4726 14.4347 19.3169C15.2787 20.1612 15.7526 21.3062 15.7523 22.5C15.752 23.6938 15.2775 24.8385 14.4332 25.6824C13.5888 26.5264 12.4438 27.0003 11.2501 27ZM15.0953 16.9065C15.0953 15.8828 15.9503 15.0548 16.9988 15.0548C18.0518 15.0548 18.9068 15.8828 18.9068 16.9065C18.9068 17.928 18.0518 18.7583 16.9988 18.7583C16.5011 18.7643 16.0213 18.5728 15.6645 18.2257C15.3077 17.8786 15.103 17.4042 15.0953 16.9065ZM22.5001 27C21.909 26.9999 21.3237 26.8833 20.7776 26.6569C20.2316 26.4306 19.7355 26.0989 19.3176 25.6809C18.8997 25.2628 18.5683 24.7665 18.3423 24.2203C18.1162 23.6742 17.9999 23.0888 18.0001 22.4978C18.0002 21.9067 18.1168 21.3214 18.3431 20.7753C18.5695 20.2293 18.9011 19.7332 19.3192 19.3153C19.7373 18.8974 20.2336 18.566 20.7797 18.34C21.3259 18.1139 21.9112 17.9976 22.5023 17.9978C23.6961 17.9981 24.8408 18.4726 25.6847 19.3169C26.5287 20.1612 27.0026 21.3062 27.0023 22.5C27.002 23.6938 26.5275 24.8385 25.6832 25.6824C24.8388 26.5264 23.6938 27.0003 22.5001 27ZM22.5001 15.75C21.909 15.7499 21.3237 15.6333 20.7776 15.4069C20.2316 15.1806 19.7355 14.8489 19.3176 14.4309C18.8997 14.0128 18.5683 13.5165 18.3423 12.9703C18.1162 12.4242 17.9999 11.8389 18.0001 11.2478C18.0002 10.6567 18.1168 10.0714 18.3431 9.52533C18.5695 8.97929 18.9011 8.48317 19.3192 8.06531C19.7373 7.64744 20.2336 7.31602 20.7797 7.08995C21.3259 6.86389 21.9112 6.74761 22.5023 6.74775C23.6961 6.74805 24.8408 7.22256 25.6847 8.0669C26.5287 8.91123 27.0026 10.0562 27.0023 11.25C27.002 12.4438 26.5275 13.5885 25.6832 14.4324C24.8388 15.2764 23.6938 15.7503 22.5001 15.75Z" fill="#E71D36"/>
</g>
<defs>
<clipPath id="clip0_2_1011">
<rect width="36" height="36" fill="white"/>
</clipPath>
</defs>
</svg>
